<?xml version="1.0" encoding="utf-8"?>
<!-- Generator: Adobe Illustrator 27.5.0, SVG Export Plug-In . SVG Version: 6.00 Build 0)  -->
<svg version="1.1" xmlns="http://www.w3.org/2000/svg" xmlns:xlink="http://www.w3.org/1999/xlink" x="0px" y="0px"
	 viewBox="0 0 500 500" style="enable-background:new 0 0 500 500;" xml:space="preserve">
<g id="Floor">
	<g id="XMLID_16108_">
		<path id="XMLID_16112_" style="fill:#F0F0F0;" d="M101.405,419.048c83.785,43.77,219.628,43.771,303.412,0.001
			c83.785-43.771,83.785-114.736,0-158.506c-83.785-43.77-219.628-43.77-303.413-0.001
			C17.619,304.312,17.619,375.278,101.405,419.048z"/>
	</g>
</g>
<g id="Shadow">
	<g id="XMLID_16168_">
		<path id="XMLID_16169_" style="fill:#E0E0E0;" d="M422.936,300.848c-12.697,6.052-33.281,6.052-45.978,0
			c-12.697-6.051-12.697-15.862,0-21.914c12.697-6.05,33.281-6.05,45.978,0C435.632,284.986,435.632,294.797,422.936,300.848z"/>
	</g>
</g>
<g id="Plants">
	<g>
		<g>
			<g>
				<path id="XMLID_16447_" style="fill:#27DEBF;" d="M92.627,335.887c0,0,1.005-14.737-4.122-27.257
					c-5.127-12.52-13.712-21.321-22.785-23.737c-9.073-2.416-18.061,4.692-9.277,12.314c8.784,7.622,25.197,16.766,29.263,39.997
					L92.627,335.887z"/>
				<path id="XMLID_41_" style="opacity:0.2;" d="M92.627,335.887c0,0,1.005-14.737-4.122-27.257
					c-5.127-12.52-13.712-21.321-22.785-23.737c-9.073-2.416-18.061,4.692-9.277,12.314c8.784,7.622,25.197,16.766,29.263,39.997
					L92.627,335.887z"/>
			</g>
			<path id="XMLID_17945_" style="fill:#FFFFFF;" d="M89.282,337.023c-0.006,0-0.012,0-0.018,0c-0.275-0.01-0.492-0.241-0.482-0.518
				c0.605-17.375-11.898-42.057-28.928-47.838c-0.261-0.089-0.401-0.373-0.312-0.635c0.09-0.262,0.372-0.399,0.635-0.313
				c17.425,5.916,30.223,31.102,29.605,48.82C89.772,336.81,89.551,337.023,89.282,337.023z"/>
		</g>
		<g>
			<g id="XMLID_15700_">
				<path id="XMLID_15702_" style="fill:#27DEBF;" d="M89.883,371.292c0,0-1.706,1.11-4.882,1.299
					c-1.999,0.119-4.024-0.184-5.898-0.891c-3.343-1.261-6.141-3.18-6.986-6.797c-0.666-2.851,0.391-6.064-0.855-8.793
					c-1.176-2.577-4.98-4.353-7.531-5.163c-1.792-0.569-3.674-0.842-5.433-1.507c-1.758-0.665-3.454-1.823-4.164-3.564
					c-1.691-4.147,2.913-8.847,1.402-13.063c-0.749-2.091-2.792-3.382-4.67-4.568c-1.878-1.186-3.869-2.624-4.385-4.784
					c-0.469-1.963,0.46-4.044,1.863-5.496c3.351-3.468,8.991-3.803,13.496-2.081c1.425,0.545,2.787,1.267,4.262,1.653
					c5.675,1.484,11.713-2.239,17.422-0.893c3.667,0.865,6.714,3.951,7.533,7.628c0.277,1.242,0.317,2.528,0.605,3.768
					c0.724,3.113,4.01,3.774,4.795,6.962c0.71,2.884-0.192,5.923-0.688,8.767c-0.763,4.371-1.62,8.725-2.526,13.068
					c-0.492,2.359-0.996,4.717-1.516,7.07c-0.479,2.165,0.152,4.543-0.816,6.533C90.853,370.557,89.883,371.292,89.883,371.292z"/>
			</g>
			<g id="XMLID_15704_">
				<path id="XMLID_17944_" style="fill:#FFFFFF;" d="M91.478,355.885c-0.242,0-0.455-0.177-0.493-0.424
					c-2.395-15.534-24.243-33.904-38.198-35.766c-0.273-0.037-0.466-0.288-0.43-0.563c0.037-0.273,0.293-0.463,0.563-0.43
					c14.266,1.903,36.603,20.704,39.054,36.605c0.042,0.272-0.146,0.528-0.418,0.57C91.53,355.883,91.504,355.885,91.478,355.885z"
					/>
			</g>
			<g id="XMLID_15705_">
				<path id="XMLID_17943_" style="fill:#FFFFFF;" d="M78.719,334.632c-0.016,0-0.031-0.001-0.047-0.002
					c-0.274-0.025-0.478-0.269-0.452-0.544c0.927-10.094,4.572-13.944,4.727-14.104c0.193-0.198,0.509-0.202,0.706-0.01
					c0.197,0.191,0.203,0.508,0.012,0.706c-0.035,0.037-3.559,3.8-4.448,13.499C79.191,334.437,78.974,334.632,78.719,334.632z"/>
			</g>
			<g id="XMLID_15706_">
				<path id="XMLID_17942_" style="fill:#FFFFFF;" d="M63.191,342.727c-0.194,0-0.379-0.114-0.46-0.305
					c-0.108-0.254,0.01-0.547,0.264-0.655c0.46-0.195,11.359-4.762,20.874-2.18c0.267,0.072,0.424,0.347,0.352,0.613
					c-0.072,0.267-0.342,0.424-0.613,0.352c-9.175-2.491-20.11,2.089-20.22,2.135C63.323,342.714,63.257,342.727,63.191,342.727z"/>
			</g>
		</g>
	</g>
</g>
<g id="Window">
	<g id="XMLID_15647_">
		<g id="XMLID_15627_">
			<path id="XMLID_15622_" style="fill:#455A64;" d="M90.626,167.776l0.001,204.07c0,1.1,0.779,2.45,1.732,3l4.66,2.691
				c0.953,0.55,2.511,0.55,3.464,0l215.886-124.642c0.953-0.55,1.732-1.9,1.732-3L318.1,45.829c0-2.761-1.819-6.051-4.062-7.347
				s-6.001-1.228-8.393,0.153C277.684,54.778,122.917,144.133,94.956,160.275C92.565,161.656,90.626,165.014,90.626,167.776z"/>
			<path id="XMLID_15633_" style="fill:#37474F;" d="M102.778,169.831l-10.889-6.313c-0.78,1.355-1.263,2.88-1.263,4.258
				l0.001,204.07c0,1.1,0.78,2.45,1.732,3l4.66,2.69c0.952,0.55,2.511,0.55,3.464,0l2.329-1.344L102.778,169.831z"/>
			<path id="XMLID_15626_" style="fill:#37474F;" d="M313.77,43.329L103.081,164.967c-2.391,1.381-4.33,4.738-4.33,7.5v204.07
				c0,1.1,0.779,1.55,1.732,1l215.886-124.642c0.953-0.55,1.732-1.9,1.732-3L318.1,45.829
				C318.1,43.068,316.161,41.948,313.77,43.329z"/>
			<path id="XMLID_15628_" style="fill:#263238;" d="M313.77,43.329L103.081,164.967c-2.391,1.381-4.33,4.738-4.33,7.5v204.07
				c0,1.1,0.779,1.55,1.732,1l215.886-124.642c0.953-0.55,1.732-1.9,1.732-3L318.1,45.829
				C318.1,43.068,316.161,41.948,313.77,43.329z"/>
			<path id="XMLID_15632_" style="fill:#37474F;" d="M318.1,54.895v-9.071c-0.002-2.758-1.94-3.876-4.33-2.496L103.081,164.966
				c-2.391,1.381-4.33,4.739-4.33,7.5v9.07L318.1,54.895z"/>
		</g>
		<g id="XMLID_15631_">
			<g id="XMLID_15534_">
				<g id="XMLID_15535_">
					<path id="XMLID_15651_" style="fill:#FAFAFA;" d="M309.317,56.29c-0.054,0-0.108-0.011-0.16-0.036
						c-0.188-0.088-0.268-0.312-0.179-0.499l1.541-3.264c0.088-0.188,0.314-0.268,0.499-0.179c0.188,0.088,0.268,0.312,0.179,0.499
						l-1.541,3.264C309.592,56.211,309.458,56.29,309.317,56.29z"/>
				</g>
				<g id="XMLID_15537_">
					<path id="XMLID_15650_" style="fill:#FAFAFA;" d="M309.218,56.498c-0.061,0-0.121-0.015-0.177-0.044
						c-0.133-0.071-0.211-0.215-0.196-0.365l0.19-2.067c0.019-0.205,0.185-0.352,0.407-0.339c0.206,0.019,0.358,0.202,0.339,0.408
						l-0.108,1.184l0.581-0.469c0.16-0.129,0.396-0.106,0.527,0.057c0.13,0.161,0.104,0.397-0.057,0.527l-1.271,1.026
						C309.385,56.47,309.302,56.498,309.218,56.498z"/>
				</g>
			</g>
			<g id="XMLID_15644_">
				<g id="XMLID_15646_">
					<path id="XMLID_15649_" style="fill:#FAFAFA;" d="M311.482,51.706c-0.054,0-0.108-0.012-0.16-0.036
						c-0.188-0.088-0.268-0.312-0.179-0.499l1.542-3.264c0.088-0.188,0.315-0.267,0.499-0.179c0.188,0.088,0.268,0.312,0.179,0.499
						l-1.542,3.264C311.757,51.627,311.623,51.706,311.482,51.706z"/>
				</g>
				<g id="XMLID_15645_">
					<path id="XMLID_15648_" style="fill:#FAFAFA;" d="M312.932,50.302c-0.011,0-0.022,0-0.034-0.001
						c-0.206-0.019-0.358-0.202-0.339-0.408l0.108-1.184l-0.582,0.47c-0.161,0.128-0.397,0.104-0.527-0.057
						c-0.13-0.161-0.105-0.397,0.057-0.527l1.272-1.026c0.117-0.095,0.278-0.11,0.412-0.039c0.133,0.071,0.21,0.215,0.196,0.365
						l-0.19,2.067C313.288,50.156,313.125,50.302,312.932,50.302z"/>
				</g>
			</g>
		</g>
		<path id="XMLID_15629_" style="fill:#FAFAFA;" d="M108.905,166.293c-1.122,0.648-2.032,2.223-2.032,3.518
			c0,1.295,0.91,1.82,2.032,1.173c1.122-0.648,2.031-2.223,2.031-3.518C110.937,166.171,110.027,165.646,108.905,166.293z"/>
		<path id="XMLID_15642_" style="fill:#FAFAFA;" d="M117.03,161.618c-1.122,0.648-2.032,2.223-2.032,3.518
			c0,1.295,0.91,1.82,2.032,1.173c1.122-0.648,2.031-2.223,2.031-3.518C119.061,161.496,118.152,160.971,117.03,161.618z"/>
		<path id="XMLID_15643_" style="fill:#FAFAFA;" d="M125.154,156.943c-1.122,0.648-2.031,2.223-2.031,3.518
			c0,1.295,0.91,1.82,2.031,1.173c1.122-0.648,2.031-2.223,2.031-3.518C127.186,156.82,126.276,156.296,125.154,156.943z"/>
	</g>
</g>
<g id="Character_1_">
	<g>
		<path id="XMLID_16152_" style="fill:#263238;" d="M386.201,176.302h22.034c1.604,0,2.904-1.3,2.904-2.904v-39.134
			c0-7.688-6.233-13.921-13.921-13.921l0,0c-7.688,0-13.921,6.233-13.921,13.921v39.134
			C383.297,175.002,384.597,176.302,386.201,176.302z"/>
		<path id="XMLID_16243_" style="fill:#263238;" d="M408.007,125.828l3.37-1.809c-0.478-0.966-1.62-1.343-2.551-0.844
			C407.895,123.675,407.528,124.863,408.007,125.828z"/>
		<path id="XMLID_16242_" style="fill:#263238;" d="M407.797,126.21l3.582,1.34c0.41-0.996-0.059-2.104-1.048-2.474
			C409.342,124.706,408.207,125.214,407.797,126.21z"/>
		<path id="XMLID_16106_" style="fill:#F28F8F;" d="M381.39,151.738l-10.224-0.284c-0.687-0.588-11.425-12.707-11.425-12.707
			s-3.864,6.097-3.929,6.485c-0.065,0.388,10.529,11.717,11.577,12.86c0.58,0.633,1.111,1.139,2.5,1.222
			c2.77,0.166,13.145,0.896,13.145,0.896L381.39,151.738z"/>
		<path id="XMLID_15833_" style="fill:#27DEBF;" d="M395.803,161.544l-16.912-0.732c-1.498-2.055-1.457-7.492,0.048-9.23
			l18.72,0.511L395.803,161.544z"/>
		<g>
			<path id="XMLID_37_" style="fill:#27DEBF;" d="M395.803,161.544l-16.912-0.732c-1.498-2.055-1.457-7.492,0.048-9.23l18.72,0.511
				L395.803,161.544z"/>
			<path id="XMLID_38_" style="opacity:0.1;" d="M395.803,161.544l-16.912-0.732c-1.498-2.055-1.457-7.492,0.048-9.23l18.72,0.511
				L395.803,161.544z"/>
		</g>
		<path id="XMLID_15734_" style="fill:#F28F8F;" d="M356.203,134.868c2-0.219,3.33-1.702,3.78-1.284
			c0.451,0.417,0.331,1.133,0.057,1.449c-0.557,0.644-2.989,1.726-2.989,1.726s-0.345,1.275-0.543,3.093
			c-0.167,1.529-0.109,4.584-1.417,5.632c-3.907,3.131-4.913-1.846-4.756-5.183C350.53,136.153,354.107,135.097,356.203,134.868z"/>
		<g id="XMLID_16146_">
			<path id="XMLID_16147_" style="fill:#263238;" d="M395.075,275.201c0.032,0.592-0.03,1.031-0.488,1.927
				c-0.553,1.083-2.034,2.937-3.181,4.17c-1.701,1.828-4.244,3.987-6.066,5.577c-1.014,0.885-1.052,2.222,0.398,2.692
				c1.449,0.47,4.657,0.671,7.976-1.113c1.808-0.972,4.389-5.465,5.896-6.146c1.731-0.781,2.704-1.173,3.288-1.97
				c0.874-1.193,1.1-2.088,0.353-3.479c-0.816-1.518-2.042-3.861-2.547-3.6l0.157,0.484c-0.397,1.239-3.775,2.681-5.506,2.337
				L395.075,275.201z"/>
		</g>
		<path id="XMLID_16145_" style="fill:#FFA8A7;" d="M393.551,269.223c0.831,2.689,1.396,4.826,1.521,6.002
			c-0.04,1.018-0.04,1.018-0.484,1.905c-0.555,1.079-2.036,2.933-3.185,4.173c-0.827,0.887-1.855,1.855-2.903,2.792
			c-0.101,0.161-0.151,0.312-0.151,0.444c0,0.947,2.308,1.199,3.659,0.806c1.653-0.484,3.054-1.734,4.173-3.205
			c0.776-1.038,2.53-3.034,3.638-4.526c0.474-0.625,0.837-1.159,0.967-1.502c0.393-0.978,0.282-1.673,0.141-2.147l-0.071-0.222
			c-0.598-1.859-0.966-3.783-1.099-5.732"/>
		<path id="XMLID_16144_" style="fill:#FFA8A7;" d="M409.565,277.271c-0.288,1.743-0.432,3.507-0.432,5.274v3.908h-5.796v-6.662
			c-0.03-0.01-0.06-0.02-0.08-0.04c0,0-0.096-1.311-0.257-3.359"/>
		<g id="XMLID_16142_">
			<path id="XMLID_16143_" style="fill:#37474F;" d="M393.551,269.223c-3.198-10.353-10.324-28.88-11.3-32.129
				c-1.038-3.467,0.214-33.752,1.061-43.458l30.185-1.617c2.298,9.837,0.061,23.102-0.726,31.387
				c-0.766,8.063-1.713,17.488-1.713,17.488s2.358,8.215,1.734,14.756c-0.398,4.118-2.346,16.304-3.227,21.621
				c-2.189,0.625-4.378,0.331-6.566-0.881c-0.367-4.672-1.07-13.181-1.728-18.744c-0.998-8.356-1.33-14.454-2.187-19.332
				c-1.078-6.088-1.451-29.946-1.451-29.946l-3.477,27.063c0,0,1.835,3.094,3.115,8.043c0.995,3.846,2.062,18.289,2.489,24.537
				C398.233,269.07,396.146,269.453,393.551,269.223z"/>
		</g>
		<path id="XMLID_16141_" style="fill:#263238;" d="M397.632,208.368c0,0-5.516-1.934-8.657-4.819c0,0,2.139,3.693,6.468,5.656
			l0.045,15.845L397.632,208.368"/>
		<g id="XMLID_16139_">
			<path id="XMLID_16140_" style="fill:#27DEBF;" d="M402.026,152.22c0,0,8.199,0.943,9.18,1.383
				c-4.997,5.472,0.322,10.004,0.322,10.004l-4.735,16.683c3.279,4.197,6.088,7.493,6.872,12.495
				c-3.513,6.19-23.248,7.05-30.481,2.437c0.629-8.64,2.033-14.825,1.566-17.419c-3.447-10.609-2.373-12.832-2.05-15.255
				c0.631-4.732,5.328-8.858,8.013-10.587c0,0,2.01,0,2.504,0L402.026,152.22z"/>
		</g>
		<g id="XMLID_16135_">
			<path id="XMLID_16136_" style="fill:#263238;" d="M403.334,283.596v-0.829c-0.165,1.263-1.843,5.158-4.143,7.255
				c-1.828,1.667-4.322,3.593-4.956,5.452c-0.66,1.934,2.946,2.699,5.31,2.463c2.767-0.277,4.926-1.939,5.949-3.112
				c1.504-1.725,1.478-2.902,2.18-3.852c0.701-0.949,2.319-2.009,2.698-3.108c0.208-0.604-0.039-1.925-0.332-3.042
				c-0.269-1.025-0.56-2.151-0.91-2.055c-0.001,0.125,0,0.632,0,0.632c-0.421,0.466-1.585,0.929-2.898,0.979
				C405.384,284.411,403.327,284.242,403.334,283.596z"/>
		</g>
		<g id="XMLID_16133_">
			<path id="XMLID_16134_" style="fill:#FFA8A7;" d="M409.129,283.399c-0.42,0.466-1.585,0.929-2.897,0.979
				c-0.848,0.033-2.905-0.136-2.898-0.782v-0.829c-0.165,1.263-1.843,5.157-4.143,7.255c-0.438,0.399-0.914,0.814-1.393,1.238
				c-0.972,1.083-0.696,2.028,1.588,2.225c2.285,0.197,4.294-1.182,6.028-3.309C407.148,288.048,409.129,283.399,409.129,283.399z"
				/>
		</g>
		<g id="XMLID_16131_">
			<path id="XMLID_16132_" style="fill:#FFA8A7;" d="M387.87,127.158c-1.47,0.869-3.288,4.567-3.108,12.32
				c0.152,6.571,2.282,8.194,3.351,8.662c1.069,0.468,3.132,0.183,5.137-0.151v3.944c0,0-2.771,3.219-2.597,5.027
				c0.174,1.808,4.002,2.236,6.595,0.469c2.593-1.767,4.778-5.21,4.778-5.21l-0.045-9.067c0,0,1.18,1.146,3.181-0.603
				c1.652-1.444,2.208-3.88,0.921-5.187c-1.287-1.307-3.667-0.951-4.579,0.912c0,0-1.115-3.095-5.733-4.604
				C391.597,132.306,389.329,130.736,387.87,127.158z"/>
		</g>
		<g id="XMLID_16129_">
			<path id="XMLID_16130_" style="fill:#263238;" d="M392.098,137.828c-0.024,0.473,0.327,0.875,0.782,0.896
				c0.456,0.022,0.845-0.345,0.868-0.818c0.024-0.473-0.327-0.875-0.782-0.896C392.511,136.988,392.122,137.354,392.098,137.828z"/>
		</g>
		<g id="XMLID_16127_">
			<path id="XMLID_16128_" style="fill:#F28F8F;" d="M391.878,143.398l-1.919,0.612c0.159,0.549,0.718,0.858,1.248,0.688
				C391.736,144.53,392.037,143.947,391.878,143.398z"/>
		</g>
		<g id="XMLID_16125_">
			<path id="XMLID_16126_" style="fill:#263238;" d="M385.323,135.291l1.672-1.159c-0.305-0.478-0.927-0.605-1.389-0.285
				C385.145,134.167,385.018,134.813,385.323,135.291z"/>
		</g>
		<g id="XMLID_16123_">
			<path id="XMLID_16124_" style="fill:#263238;" d="M394.503,135.902l-1.672-1.159c0.305-0.478,0.927-0.605,1.389-0.285
				C394.681,134.779,394.808,135.425,394.503,135.902z"/>
		</g>
		<g id="XMLID_16121_">
			<path id="XMLID_16122_" style="fill:#263238;" d="M385.708,137.23c-0.024,0.473,0.327,0.875,0.782,0.896
				c0.456,0.022,0.844-0.345,0.868-0.818c0.024-0.474-0.327-0.875-0.782-0.897C386.121,136.391,385.732,136.757,385.708,137.23z"/>
		</g>
		<g id="XMLID_16119_">
			<polygon id="XMLID_16120_" style="fill:#F28F8F;" points="389.607,136.757 389.475,141.731 386.857,140.921 			"/>
		</g>
		<g id="XMLID_16117_">
			<path id="XMLID_16118_" style="fill:#F28F8F;" d="M393.25,147.99c2.113-0.277,6.461-1.526,7.138-3.245
				c0,0-0.226,1.08-1.524,2.193c-1.299,1.113-5.614,2.367-5.614,2.367V147.99z"/>
		</g>
		<g>
			<g id="XMLID_16115_">
				<polygon id="XMLID_16116_" style="fill:#27DEBF;" points="408.898,172.875 402.432,183.085 406.793,180.291 				"/>
			</g>
			<g id="XMLID_35_" style="opacity:0.2;">
				<polygon id="XMLID_36_" points="408.898,172.875 402.432,183.085 406.793,180.291 				"/>
			</g>
		</g>
	</g>
	<g>
		<g id="XMLID_15520_">
			<path id="XMLID_15525_" style="fill:#E0E0E0;" d="M117.33,389.263l-0.598-0.345c-0.957-0.552-1.732-1.895-1.732-3l-0.001-169.546
				c0-1.105,0.775-2.448,1.732-3l110.273-63.667c0.957-0.552,1.732-1.896,1.732-3l-0.001-10.071c0-1.104,0.775-2.448,1.732-3
				l49.342-28.488c0.957-0.552,2.508-0.552,3.464,0l0.598,0.345c0.957,0.552,1.732,1.896,1.732,3l0,5.381
				c0,1.105,0.775,1.552,1.732,1l45.281-26.142c0.957-0.552,2.508-0.552,3.464,0l0.598,0.345c0.956,0.552,1.732,1.895,1.732,3
				l0,169.547c0,1.105-0.776,2.448-1.732,3L120.794,389.263C119.838,389.815,118.287,389.815,117.33,389.263z"/>
			<path id="XMLID_15522_" style="fill:#F5F5F5;" d="M119.062,388.263l-0.001-169.547c0-1.105,0.775-2.448,1.732-3l110.273-63.667
				c0.957-0.552,1.732-1.895,1.732-3l-0.001-10.071c0-1.105,0.775-2.448,1.732-3l49.342-28.488c0.957-0.552,1.732-0.104,1.732,1
				l0,10.071c0,1.105,0.775,1.552,1.732,1l49.343-28.487c0.956-0.552,1.732-0.105,1.732,1l0,169.547c0,1.105-0.776,2.448-1.732,3
				L120.794,389.263C119.838,389.815,119.062,389.368,119.062,388.263z"/>
			<g id="XMLID_15428_">
				<path id="XMLID_15625_" style="fill:#37474F;" d="M114.999,226.967v1.475l4.062,2.345l219.35-126.641V92.074
					c0-1.104-0.775-2.448-1.732-3l-0.598-0.345c-0.956-0.552-2.507-0.552-3.464,0l-45.282,26.144c-0.956,0.552-1.732,0.104-1.732-1
					v-5.381c0-1.105-0.775-2.448-1.732-3l-0.598-0.345c-0.957-0.552-2.507-0.552-3.464,0l-49.342,28.488
					c-0.957,0.552-1.732,1.895-1.732,3l0.001,10.071c0,1.105-0.775,2.448-1.732,3L116.73,213.37
					c-0.956,0.552-1.732,1.895-1.732,2.999V226.967z"/>
				<path id="XMLID_15409_" style="fill:#FAFAFA;" d="M114.999,226.967v1.475l4.062,2.345l219.35-126.641V92.074
					c0-1.104-0.775-2.448-1.732-3l-0.598-0.345c-0.956-0.552-2.507-0.552-3.464,0l-45.282,26.144c-0.956,0.552-1.732,0.104-1.732-1
					v-5.381c0-1.105-0.775-2.448-1.732-3l-0.598-0.345c-0.957-0.552-2.507-0.552-3.464,0l-49.342,28.488
					c-0.957,0.552-1.732,1.895-1.732,3l0.001,10.071c0,1.105-0.775,2.448-1.732,3L116.73,213.37
					c-0.956,0.552-1.732,1.895-1.732,2.999V226.967z"/>
				<path id="XMLID_15624_" style="fill:#E0E0E0;" d="M236.858,153.395l0-14.071l-7.617-4.397c-0.314,0.543-0.508,1.155-0.508,1.708
					l0.001,10.071c0,0.552-0.194,1.164-0.507,1.707L236.858,153.395z"/>
				<path id="XMLID_15623_" style="fill:#E0E0E0;" d="M123.123,219.061l-7.617-4.397c-0.313,0.543-0.507,1.154-0.507,1.706v10.597
					v1.475l4.062,2.345L123.123,219.061z"/>
				<path id="XMLID_15620_" style="fill:#EBEBEB;" d="M231.065,152.05l-110.273,63.666c-0.956,0.552-1.732,1.895-1.732,3v12.071
					l219.35-126.641V92.074c0-1.104-0.775-1.552-1.732-1l-49.344,28.489c-0.956,0.552-1.732,0.105-1.732-1v-10.071
					c0-1.105-0.775-1.552-1.732-1l-49.342,28.488c-0.957,0.552-1.732,1.895-1.732,3l0.001,10.071
					C232.797,150.154,232.022,151.498,231.065,152.05z"/>
				<g id="XMLID_15599_">
					<g id="XMLID_15616_" style="opacity:0.7;">
						<path id="XMLID_15619_" style="fill:#E0E0E0;" d="M129.815,216.681l-3.556,2.053l1.364-2.342
							c0.14-0.238,0.059-0.545-0.18-0.684c-0.238-0.138-0.545-0.059-0.684,0.181l-2.311,3.966c-0.067,0.116-0.086,0.253-0.051,0.383
							c0.035,0.129,0.121,0.239,0.237,0.305l2.311,1.298c0.078,0.043,0.162,0.064,0.245,0.064c0.175,0,0.344-0.092,0.435-0.255
							c0.136-0.241,0.05-0.546-0.19-0.681l-1.545-0.868l4.424-2.554c0.239-0.138,0.321-0.444,0.183-0.683
							C130.36,216.624,130.053,216.544,129.815,216.681z"/>
						<path id="XMLID_15618_" style="fill:#E0E0E0;" d="M138.083,212.618c-0.035-0.129-0.121-0.239-0.237-0.305l-2.311-1.298
							c-0.244-0.136-0.546-0.05-0.681,0.191c-0.136,0.241-0.05,0.546,0.19,0.681l1.546,0.868l-4.424,2.555
							c-0.239,0.138-0.321,0.444-0.183,0.683c0.092,0.161,0.261,0.25,0.433,0.25c0.085,0,0.171-0.021,0.25-0.067l3.556-2.053
							l-1.364,2.342c-0.14,0.238-0.059,0.544,0.18,0.684c0.079,0.046,0.166,0.068,0.252,0.068c0.172,0,0.339-0.089,0.432-0.249
							l2.311-3.966C138.1,212.885,138.119,212.747,138.083,212.618z"/>
					</g>
					<g id="XMLID_15613_">
						<path id="XMLID_15617_" style="fill:#E0E0E0;" d="M145.604,206.085l158.151-91.309c1.196-0.69,2.165-0.2,2.165,1.095
							c0,1.295-0.969,2.905-2.165,3.595l-158.151,91.309c-1.196,0.69-2.165,0.2-2.165-1.095
							C143.439,208.385,144.408,206.775,145.604,206.085z"/>
					</g>
					<g id="XMLID_15604_">
						<path id="XMLID_15614_" style="fill:#FAFAFA;" d="M312.013,110.008c1.122-0.648,2.031-0.122,2.031,1.173
							s-0.909,2.87-2.031,3.518c-1.122,0.648-2.031,0.123-2.031-1.173C309.982,112.231,310.892,110.656,312.013,110.008z"/>
					</g>
					<g id="XMLID_15602_">
						<path id="XMLID_15605_" style="fill:#FAFAFA;" d="M320.138,105.318c1.122-0.648,2.031-0.122,2.031,1.173
							c0,1.295-0.909,2.87-2.031,3.518c-1.122,0.648-2.031,0.123-2.031-1.173C318.107,107.541,319.016,105.966,320.138,105.318z"/>
					</g>
					<g id="XMLID_15601_">
						<path id="XMLID_15603_" style="fill:#FAFAFA;" d="M328.262,100.628c1.122-0.648,2.031-0.122,2.031,1.173
							c0,1.295-0.909,2.87-2.031,3.518c-1.122,0.648-2.031,0.123-2.031-1.173C326.231,102.851,327.141,101.276,328.262,100.628z"/>
					</g>
				</g>
				<g id="XMLID_15429_" style="opacity:0.7;">
					<g id="XMLID_15597_">
						<path id="XMLID_15600_" style="fill:#E0E0E0;" d="M244.983,136.978c0,1.295,0.969,1.786,2.165,1.095l24.104-13.917
							c1.196-0.69,2.165-2.3,2.165-3.595c0-1.295-0.969-1.786-2.165-1.095l-24.104,13.917
							C245.952,134.074,244.983,135.683,244.983,136.978z"/>
					</g>
					<g id="XMLID_15594_">
						<path id="XMLID_15598_" style="fill:#27DEBF;" d="M238.889,138.151c-1.122,0.648-2.031,2.222-2.031,3.518
							c0,1.295,0.909,1.82,2.031,1.173c1.122-0.648,2.031-2.223,2.031-3.518C240.92,138.028,240.011,137.503,238.889,138.151z"/>
					</g>
					<g id="XMLID_15430_">
						<g id="XMLID_15564_">
							<path id="XMLID_15567_" style="fill:#E0E0E0;" d="M281.541,118.716c-0.085,0-0.171-0.021-0.25-0.067l-4.063-2.345
								c-0.239-0.138-0.321-0.444-0.183-0.683c0.138-0.239,0.444-0.319,0.683-0.183l4.063,2.345
								c0.239,0.138,0.321,0.444,0.183,0.683C281.882,118.626,281.713,118.716,281.541,118.716z"/>
						</g>
						<g id="XMLID_15431_">
							<path id="XMLID_15563_" style="fill:#E0E0E0;" d="M277.479,121.061c-0.085,0-0.171-0.021-0.25-0.067
								c-0.239-0.138-0.321-0.444-0.183-0.683l4.063-7.036c0.138-0.239,0.444-0.32,0.683-0.183c0.239,0.138,0.321,0.444,0.183,0.683
								l-4.063,7.036C277.819,120.972,277.651,121.061,277.479,121.061z"/>
						</g>
					</g>
				</g>
			</g>
		</g>
		<g id="XMLID_15512_">
			<path id="XMLID_15493_" style="fill:#E0E0E0;" d="M129.516,396.298l-0.598-0.345c-0.956-0.552-1.732-1.896-1.732-3
				l-0.001-169.546c0-1.105,0.776-2.448,1.732-3l57.467-33.178c0.957-0.552,1.732-1.895,1.732-3l-0.001-10.071
				c0-1.105,0.775-2.448,1.732-3l49.342-28.488c0.957-0.552,2.508-0.552,3.464,0l0.598,0.345c0.957,0.552,1.732,1.895,1.732,3v5.381
				c0,1.104,0.776,1.552,1.732,1l98.087-56.632c0.957-0.552,2.508-0.552,3.464,0l0.598,0.345c0.957,0.552,1.732,1.895,1.732,3
				l0,169.547c0,1.104-0.776,2.448-1.732,3L132.98,396.298C132.023,396.85,130.472,396.85,129.516,396.298z"/>
			<path id="XMLID_15511_" style="fill:#FAFAFA;" d="M131.248,395.298l-0.001-169.547c0-1.105,0.775-2.448,1.732-3l57.467-33.178
				c0.957-0.552,1.732-1.895,1.732-3l-0.001-10.07c0-1.105,0.775-2.448,1.732-3l49.342-28.488c0.957-0.552,1.732-0.105,1.732,1
				v10.071c0,1.104,0.776,1.552,1.732,1L348.865,98.11c0.957-0.552,1.732-0.105,1.732,1l0,169.547c0,1.104-0.776,2.448-1.732,3
				L132.98,396.298C132.023,396.85,131.248,396.402,131.248,395.298z"/>
		</g>
		<g id="XMLID_30_">
			<path id="XMLID_438_" style="fill:#F0F0F0;" d="M127.185,234.003v1.475l4.062,2.345l219.35-126.641V99.11
				c0-1.104-0.775-2.448-1.732-3l-0.598-0.345c-0.957-0.552-2.507-0.552-3.464,0l-98.087,56.632c-0.956,0.552-1.732,0.105-1.732-1
				v-5.381c0-1.105-0.775-2.448-1.732-3l-0.598-0.345c-0.957-0.552-2.507-0.552-3.464,0l-49.342,28.488
				c-0.957,0.552-1.732,1.895-1.732,3l0.001,10.071c0,1.105-0.775,2.448-1.732,3l-57.467,33.177
				c-0.957,0.552-1.732,1.895-1.732,2.999V234.003z"/>
			<path id="XMLID_441_" style="fill:#E0E0E0;" d="M196.239,190.918l0-14.071l-7.617-4.397c-0.314,0.543-0.508,1.155-0.508,1.708
				l0.001,10.071c0,0.552-0.194,1.164-0.507,1.707L196.239,190.918z"/>
			<path id="XMLID_440_" style="fill:#E0E0E0;" d="M135.309,226.096l-7.617-4.397c-0.313,0.543-0.507,1.154-0.507,1.706v10.597
				v1.475l4.062,2.345L135.309,226.096z"/>
			<path id="XMLID_434_" style="fill:#E0E0E0;" d="M190.446,189.574l-57.467,33.178c-0.957,0.552-1.732,1.895-1.732,3v12.071
				l219.35-126.641V99.11c0-1.104-0.775-1.552-1.732-1l-102.149,58.977c-0.956,0.552-1.732,0.104-1.732-1v-10.071
				c0-1.105-0.775-1.552-1.732-1l-49.342,28.488c-0.956,0.552-1.732,1.895-1.732,3l0.001,10.07
				C192.178,187.678,191.403,189.021,190.446,189.574z"/>
			<g id="XMLID_925_">
				<g id="XMLID_15436_" style="opacity:0.7;">
					<path id="XMLID_15595_" style="fill:#E0E0E0;" d="M142.001,223.717l-3.556,2.053l1.364-2.342
						c0.14-0.238,0.059-0.544-0.18-0.684c-0.238-0.138-0.545-0.059-0.684,0.181l-2.31,3.966c-0.067,0.116-0.086,0.253-0.051,0.383
						c0.035,0.129,0.121,0.239,0.237,0.305l2.311,1.298c0.078,0.043,0.162,0.064,0.245,0.064c0.175,0,0.344-0.092,0.436-0.255
						c0.136-0.241,0.05-0.546-0.19-0.681l-1.545-0.868l4.424-2.554c0.239-0.138,0.321-0.444,0.183-0.683
						C142.546,223.66,142.24,223.579,142.001,223.717z"/>
					<path id="XMLID_15596_" style="fill:#E0E0E0;" d="M150.27,219.654c-0.035-0.129-0.121-0.239-0.237-0.305l-2.311-1.298
						c-0.244-0.136-0.546-0.05-0.681,0.191c-0.136,0.241-0.05,0.546,0.19,0.681l1.545,0.868l-4.424,2.555
						c-0.239,0.138-0.321,0.444-0.183,0.683c0.092,0.161,0.261,0.25,0.433,0.25c0.085,0,0.171-0.021,0.25-0.067l3.556-2.053
						l-1.364,2.342c-0.14,0.238-0.059,0.544,0.18,0.684c0.079,0.046,0.166,0.068,0.252,0.068c0.172,0,0.339-0.089,0.432-0.249
						l2.311-3.966C150.287,219.921,150.305,219.783,150.27,219.654z"/>
				</g>
				<g id="XMLID_15403_">
					<path id="XMLID_16498_" style="fill:#E0E0E0;" d="M157.791,213.12l158.151-91.309c1.196-0.69,2.165-0.2,2.165,1.095
						c0,1.295-0.969,2.905-2.165,3.595l-158.151,91.309c-1.196,0.69-2.165,0.2-2.165-1.095
						C155.626,215.421,156.595,213.811,157.791,213.12z"/>
				</g>
				<g id="XMLID_15394_">
					<path id="XMLID_16492_" style="fill:#FAFAFA;" d="M324.2,117.044c1.122-0.648,2.031-0.123,2.031,1.173
						c0,1.295-0.909,2.87-2.031,3.518c-1.122,0.648-2.031,0.123-2.031-1.173C322.169,119.267,323.078,117.692,324.2,117.044z"/>
				</g>
				<g id="XMLID_15331_">
					<path id="XMLID_16484_" style="fill:#FAFAFA;" d="M332.324,112.354c1.122-0.648,2.031-0.123,2.031,1.173
						c0,1.295-0.909,2.87-2.031,3.518c-1.122,0.648-2.031,0.123-2.031-1.173C330.293,114.576,331.203,113.002,332.324,112.354z"/>
				</g>
				<g id="XMLID_15330_">
					<path id="XMLID_16483_" style="fill:#FAFAFA;" d="M340.449,107.664c1.122-0.648,2.031-0.123,2.031,1.173
						c0,1.295-0.909,2.87-2.031,3.518c-1.122,0.648-2.031,0.123-2.031-1.173C338.418,109.886,339.327,108.311,340.449,107.664z"/>
				</g>
			</g>
			<g id="XMLID_65_" style="opacity:0.7;">
				<g id="XMLID_447_">
					<path id="XMLID_16482_" style="fill:#E0E0E0;" d="M204.364,174.502c0,1.295,0.969,1.786,2.165,1.095l24.104-13.917
						c1.196-0.69,2.165-2.3,2.165-3.595c0-1.295-0.969-1.786-2.165-1.095l-24.104,13.917
						C205.333,171.597,204.364,173.207,204.364,174.502z"/>
				</g>
				<g id="XMLID_446_">
					<path id="XMLID_16481_" style="fill:#27DEBF;" d="M198.271,175.674c-1.122,0.648-2.031,2.223-2.031,3.518
						s0.909,1.82,2.031,1.173c1.122-0.648,2.031-2.223,2.031-3.518C200.302,175.552,199.392,175.027,198.271,175.674z"/>
				</g>
				<g id="XMLID_131_">
					<g id="XMLID_444_">
						<path id="XMLID_15329_" style="fill:#E0E0E0;" d="M240.922,156.24c-0.085,0-0.171-0.021-0.25-0.067l-4.063-2.345
							c-0.239-0.138-0.321-0.444-0.183-0.683c0.138-0.239,0.444-0.319,0.683-0.183l4.063,2.345c0.239,0.138,0.321,0.444,0.183,0.683
							C241.263,156.15,241.094,156.24,240.922,156.24z"/>
					</g>
					<g id="XMLID_443_">
						<path id="XMLID_926_" style="fill:#E0E0E0;" d="M236.86,158.585c-0.085,0-0.171-0.021-0.25-0.067
							c-0.239-0.138-0.321-0.444-0.183-0.683l4.063-7.036c0.138-0.239,0.444-0.32,0.683-0.183c0.239,0.138,0.321,0.444,0.183,0.683
							l-4.063,7.036C237.201,158.496,237.032,158.585,236.86,158.585z"/>
					</g>
				</g>
			</g>
		</g>
		<path id="XMLID_15531_" style="fill:#E0E0E0;" d="M141.703,403.333l-0.598-0.345c-0.957-0.552-1.732-1.895-1.732-3l-0.001-169.547
			c0-1.105,0.775-2.448,1.732-3l4.659-2.689c0.957-0.552,1.732-1.896,1.732-3l-0.001-10.071c0-1.104,0.775-2.448,1.732-3
			l49.342-28.488c0.957-0.552,2.507-0.552,3.464,0l0.598,0.345c0.957,0.552,1.732,1.896,1.732,3l0,5.381
			c0,1.105,0.775,1.552,1.732,1L356.99,102.8c0.957-0.552,2.508-0.552,3.464,0l0.598,0.345c0.957,0.552,1.732,1.896,1.732,3
			l0,169.547c0,1.104-0.775,2.448-1.732,3L145.167,403.333C144.21,403.886,142.66,403.886,141.703,403.333z"/>
		<path id="XMLID_15530_" style="fill:#FAFAFA;" d="M143.435,402.333l-0.001-169.546c0-1.105,0.775-2.448,1.732-3l4.659-2.689
			c0.957-0.552,1.732-1.896,1.732-3l-0.001-10.071c0-1.105,0.775-2.448,1.732-3l49.342-28.488c0.957-0.552,1.732-0.104,1.732,1
			l0,10.071c0,1.105,0.775,1.552,1.732,1l154.957-89.465c0.957-0.552,1.732-0.104,1.732,1l0,169.547c0,1.104-0.775,2.448-1.732,3
			L145.167,403.333C144.21,403.886,143.435,403.438,143.435,402.333z"/>
		<g id="XMLID_15747_">
			<polygon id="XMLID_16503_" style="fill:#27DEBF;" points="143.434,244.858 143.436,277.692 362.784,151.049 362.784,118.217 			
				"/>
			<g>
				<polygon id="XMLID_16507_" style="fill:#27DEBF;" points="139.372,242.514 139.373,275.346 143.435,277.692 143.434,244.858 
									"/>
				<polygon id="XMLID_1_" style="opacity:0.2;" points="139.372,242.514 139.373,275.346 143.435,277.692 143.434,244.858 				"/>
			</g>
			<g id="XMLID_937_">
				<path id="XMLID_16505_" style="fill:#FFFFFF;" d="M214.655,217.811l70.952-40.965l-0.002,4.69l-70.95,40.965
					c-1.196,0.69-2.165,0.2-2.165-1.095C212.49,220.111,213.459,218.502,214.655,217.811z"/>
				<path id="XMLID_16506_" style="fill:#FFFFFF;" d="M291.7,173.329l-6.092,3.517l-0.002,4.69c0,0,4.971-2.87,6.093-3.517
					c1.122-0.647,2.031-2.222,2.032-3.517C293.73,173.207,292.821,172.682,291.7,173.329z"/>
			</g>
		</g>
		<g>
			<g id="XMLID_941_">
				<path id="XMLID_938_" style="fill:#27DEBF;" d="M155.621,280.037c2.244-1.295,4.064-0.245,4.064,2.346s-1.819,5.741-4.064,7.036
					c-2.244,1.295-4.064,0.245-4.064-2.346C151.557,284.482,153.376,281.332,155.621,280.037z"/>
				<path id="XMLID_939_" style="fill:#27DEBF;" d="M165.91,274.097l24.105-13.917c1.196-0.69,2.165-0.2,2.165,1.095
					c0,1.295-0.969,2.905-2.165,3.595l-24.105,13.916c-1.196,0.69-2.165,0.2-2.165-1.095
					C163.745,276.397,164.715,274.787,165.91,274.097z"/>
				<g>
					<path id="XMLID_940_" style="fill:#27DEBF;" d="M163.746,283.555c0-0.648,0.485-1.453,1.082-1.798l14.083-8.131
						c0.598-0.345,1.083-0.1,1.083,0.548c0,0.648-0.485,1.453-1.083,1.798l-14.083,8.131
						C164.231,284.448,163.746,284.203,163.746,283.555z"/>
					<path id="XMLID_2_" style="opacity:0.3;fill:#FFFFFF;" d="M163.746,283.555c0-0.648,0.485-1.453,1.082-1.798l14.083-8.131
						c0.598-0.345,1.083-0.1,1.083,0.548c0,0.648-0.485,1.453-1.083,1.798l-14.083,8.131
						C164.231,284.448,163.746,284.203,163.746,283.555z"/>
				</g>
			</g>
			<g id="XMLID_3_">
				<path id="XMLID_7_" style="fill:#27DEBF;" d="M155.621,298.037c2.244-1.295,4.064-0.245,4.064,2.346s-1.819,5.741-4.064,7.036
					c-2.244,1.295-4.064,0.245-4.064-2.346C151.557,302.482,153.376,299.332,155.621,298.037z"/>
				<path id="XMLID_6_" style="fill:#27DEBF;" d="M165.91,292.097l24.105-13.917c1.196-0.69,2.165-0.2,2.165,1.095
					c0,1.295-0.969,2.905-2.165,3.595l-24.105,13.916c-1.196,0.69-2.165,0.2-2.165-1.095
					C163.745,294.397,164.715,292.787,165.91,292.097z"/>
				<g>
					<path id="XMLID_5_" style="fill:#27DEBF;" d="M163.746,301.555c0-0.648,0.485-1.453,1.082-1.798l14.083-8.131
						c0.598-0.345,1.083-0.1,1.083,0.548c0,0.648-0.485,1.453-1.083,1.798l-14.083,8.131
						C164.231,302.448,163.746,302.203,163.746,301.555z"/>
					<path id="XMLID_4_" style="opacity:0.3;fill:#FFFFFF;" d="M163.746,301.555c0-0.648,0.485-1.453,1.082-1.798l14.083-8.131
						c0.598-0.345,1.083-0.1,1.083,0.548c0,0.648-0.485,1.453-1.083,1.798l-14.083,8.131
						C164.231,302.448,163.746,302.203,163.746,301.555z"/>
				</g>
			</g>
			<g id="XMLID_8_">
				<path id="XMLID_12_" style="fill:#27DEBF;" d="M155.621,318.037c2.244-1.295,4.064-0.245,4.064,2.346s-1.819,5.741-4.064,7.036
					c-2.244,1.295-4.064,0.245-4.064-2.346C151.557,322.482,153.376,319.332,155.621,318.037z"/>
				<path id="XMLID_11_" style="fill:#27DEBF;" d="M165.91,312.097l24.105-13.917c1.196-0.69,2.165-0.2,2.165,1.095
					c0,1.295-0.969,2.905-2.165,3.595l-24.105,13.916c-1.196,0.69-2.165,0.2-2.165-1.095
					C163.745,314.397,164.715,312.787,165.91,312.097z"/>
				<g>
					<path id="XMLID_10_" style="fill:#27DEBF;" d="M163.746,321.555c0-0.648,0.485-1.453,1.082-1.798l14.083-8.131
						c0.598-0.345,1.083-0.1,1.083,0.548c0,0.648-0.485,1.453-1.083,1.798l-14.083,8.131
						C164.231,322.448,163.746,322.203,163.746,321.555z"/>
					<path id="XMLID_9_" style="opacity:0.3;fill:#FFFFFF;" d="M163.746,321.555c0-0.648,0.485-1.453,1.082-1.798l14.083-8.131
						c0.598-0.345,1.083-0.1,1.083,0.548c0,0.648-0.485,1.453-1.083,1.798l-14.083,8.131
						C164.231,322.448,163.746,322.203,163.746,321.555z"/>
				</g>
			</g>
			<g id="XMLID_13_">
				<path id="XMLID_17_" style="fill:#27DEBF;" d="M155.621,350.037c2.244-1.295,4.064-0.245,4.064,2.346s-1.819,5.741-4.064,7.036
					c-2.244,1.295-4.064,0.245-4.064-2.346C151.557,354.482,153.376,351.332,155.621,350.037z"/>
				<path id="XMLID_16_" style="fill:#27DEBF;" d="M165.91,344.097l24.105-13.917c1.196-0.69,2.165-0.2,2.165,1.095
					c0,1.295-0.969,2.905-2.165,3.595l-24.105,13.916c-1.196,0.69-2.165,0.2-2.165-1.095
					C163.745,346.397,164.715,344.787,165.91,344.097z"/>
				<g>
					<path id="XMLID_15_" style="fill:#27DEBF;" d="M163.746,353.555c0-0.648,0.485-1.453,1.082-1.798l14.083-8.131
						c0.598-0.345,1.083-0.1,1.083,0.548c0,0.648-0.485,1.453-1.083,1.798l-14.083,8.131
						C164.231,354.448,163.746,354.203,163.746,353.555z"/>
					<path id="XMLID_14_" style="opacity:0.3;fill:#FFFFFF;" d="M163.746,353.555c0-0.648,0.485-1.453,1.082-1.798l14.083-8.131
						c0.598-0.345,1.083-0.1,1.083,0.548c0,0.648-0.485,1.453-1.083,1.798l-14.083,8.131
						C164.231,354.448,163.746,354.203,163.746,353.555z"/>
				</g>
			</g>
			<g id="XMLID_18_">
				<path id="XMLID_22_" style="fill:#27DEBF;" d="M155.621,367.037c2.244-1.295,4.064-0.245,4.064,2.346s-1.819,5.741-4.064,7.036
					c-2.244,1.295-4.064,0.245-4.064-2.346C151.557,371.482,153.376,368.332,155.621,367.037z"/>
				<path id="XMLID_21_" style="fill:#27DEBF;" d="M165.91,361.097l24.105-13.917c1.196-0.69,2.165-0.2,2.165,1.095
					c0,1.295-0.969,2.905-2.165,3.595l-24.105,13.916c-1.196,0.69-2.165,0.2-2.165-1.095
					C163.745,363.397,164.715,361.787,165.91,361.097z"/>
				<g>
					<path id="XMLID_20_" style="fill:#27DEBF;" d="M163.746,370.555c0-0.648,0.485-1.453,1.082-1.798l14.083-8.131
						c0.598-0.345,1.083-0.1,1.083,0.548c0,0.648-0.485,1.453-1.083,1.798l-14.083,8.131
						C164.231,371.448,163.746,371.203,163.746,370.555z"/>
					<path id="XMLID_19_" style="opacity:0.3;fill:#FFFFFF;" d="M163.746,370.555c0-0.648,0.485-1.453,1.082-1.798l14.083-8.131
						c0.598-0.345,1.083-0.1,1.083,0.548c0,0.648-0.485,1.453-1.083,1.798l-14.083,8.131
						C164.231,371.448,163.746,371.203,163.746,370.555z"/>
				</g>
			</g>
			<path id="XMLID_15799_" style="fill:#E0E0E0;" d="M147.497,344.961v0.11c0,0.331,0.233,0.466,0.52,0.3l23.334-13.472
				c0.287-0.166,0.52-0.569,0.52-0.9v-0.109c0-0.331-0.233-0.466-0.52-0.3l-23.334,13.471
				C147.73,344.226,147.497,344.629,147.497,344.961z"/>
		</g>
		<g>
			<path id="XMLID_942_" style="fill:#27DEBF;" d="M206.529,250.646l109.406-63.169c1.196-0.69,2.165-0.131,2.165,1.25v41.899
				c0,1.381-0.969,3.06-2.165,3.75l-109.406,63.17c-1.196,0.69-2.165,0.131-2.165-1.25v-41.9
				C204.364,253.015,205.333,251.336,206.529,250.646z"/>
			<g id="XMLID_948_">
				<path id="XMLID_15759_" style="fill:#F5F5F5;" d="M212.489,254.24c0,1.295,0.969,1.785,2.165,1.095l26.268-15.165
					c1.196-0.69,2.165-2.299,2.165-3.594c0-1.294-0.969-1.784-2.165-1.094l-26.268,15.163
					C213.459,251.335,212.489,252.945,212.489,254.24z"/>
				<path id="XMLID_15757_" style="fill:#F5F5F5;" d="M245.935,234.931c0,1.295,0.969,1.785,2.165,1.095l26.268-15.165
					c1.196-0.69,2.165-2.299,2.165-3.594c0-1.294-0.969-1.784-2.165-1.094l-26.268,15.163
					C246.905,232.026,245.935,233.636,245.935,234.931z"/>
				<path id="XMLID_15756_" style="fill:#F5F5F5;" d="M279.382,215.622c0,1.295,0.969,1.785,2.165,1.094l26.268-15.165
					c1.196-0.69,2.165-2.299,2.165-3.594c0-1.294-0.969-1.784-2.165-1.094l-26.268,15.163
					C280.351,212.717,279.382,214.327,279.382,215.622z"/>
			</g>
			<g id="XMLID_947_">
				<path id="XMLID_15741_" style="fill:#F5F5F5;" d="M212.489,287.072c0,1.295,0.969,1.785,2.165,1.095l93.16-53.781
					c1.196-0.69,2.165-2.299,2.165-3.594c0-1.294-0.969-1.784-2.165-1.094l-93.16,53.78
					C213.459,284.168,212.489,285.777,212.489,287.072z"/>
			</g>
			<path id="XMLID_15753_" style="fill:#F5F5F5;" d="M214.223,260.276l94.025-54.286c0.957-0.552,1.732-0.105,1.732,1l-0.001,14.762
				c0,1.104-0.776,2.448-1.732,3l-94.023,54.286c-0.957,0.552-1.732,0.105-1.732-1l0-14.762
				C212.491,262.171,213.266,260.828,214.223,260.276z"/>
		</g>
		<g>
			<path id="XMLID_31_" style="fill:#27DEBF;" d="M206.529,306.646l109.406-63.169c1.196-0.69,2.165-0.131,2.165,1.25v41.899
				c0,1.381-0.969,3.06-2.165,3.75l-109.406,63.17c-1.196,0.69-2.165,0.131-2.165-1.25v-41.9
				C204.364,309.015,205.333,307.336,206.529,306.646z"/>
			<g id="XMLID_26_">
				<path id="XMLID_29_" style="fill:#F5F5F5;" d="M212.489,310.24c0,1.295,0.969,1.785,2.165,1.095l26.268-15.165
					c1.196-0.69,2.165-2.299,2.165-3.594c0-1.294-0.969-1.784-2.165-1.094l-26.268,15.163
					C213.459,307.335,212.489,308.945,212.489,310.24z"/>
				<path id="XMLID_28_" style="fill:#F5F5F5;" d="M245.935,290.931c0,1.295,0.969,1.785,2.165,1.095l26.268-15.165
					c1.196-0.69,2.165-2.299,2.165-3.594c0-1.294-0.969-1.784-2.165-1.094l-26.268,15.163
					C246.905,288.026,245.935,289.636,245.935,290.931z"/>
				<path id="XMLID_27_" style="fill:#F5F5F5;" d="M279.382,271.622c0,1.295,0.969,1.785,2.165,1.095l26.268-15.165
					c1.196-0.69,2.165-2.299,2.165-3.594c0-1.294-0.969-1.784-2.165-1.094l-26.268,15.163
					C280.351,268.717,279.382,270.327,279.382,271.622z"/>
			</g>
			<g id="XMLID_24_">
				<path id="XMLID_25_" style="fill:#F5F5F5;" d="M212.489,343.072c0,1.295,0.969,1.785,2.165,1.095l93.16-53.781
					c1.196-0.69,2.165-2.299,2.165-3.594c0-1.295-0.969-1.784-2.165-1.094l-93.16,53.78
					C213.459,340.168,212.489,341.777,212.489,343.072z"/>
			</g>
			<path id="XMLID_23_" style="fill:#F5F5F5;" d="M214.223,316.276l94.025-54.286c0.957-0.552,1.732-0.105,1.732,1l-0.001,14.762
				c0,1.105-0.776,2.448-1.732,3l-94.023,54.286c-0.957,0.552-1.732,0.105-1.732-1l0-14.762
				C212.491,318.171,213.266,316.828,214.223,316.276z"/>
		</g>
		<path id="XMLID_15750_" style="fill:#27DEBF;" d="M352.496,166.372l-24.1,13.915c-1.196,0.69-2.165,2.369-2.165,3.75v23.144
			c0,1.381,0.969,1.94,2.165,1.25l24.1-13.915c1.196-0.69,2.165-2.369,2.165-3.75v-23.145
			C354.661,166.241,353.691,165.681,352.496,166.372z"/>
		<path id="XMLID_15796_" style="fill:#F5F5F5;" d="M333.273,182.18c1.648-0.952,2.984-0.18,2.984,1.723
			c0,1.903-1.337,4.217-2.986,5.169c-1.649,0.951-2.985,0.18-2.984-1.723C330.288,185.446,331.625,183.132,333.273,182.18z"/>
		<path id="XMLID_15797_" style="fill:#F5F5F5;" d="M338.413,182.71c0-0.648,0.485-1.453,1.083-1.798l10.021-5.785
			c0.598-0.345,1.082-0.1,1.081,0.547c-0.001,0.647-0.486,1.452-1.084,1.797l-10.018,5.787
			C338.898,183.603,338.413,183.358,338.413,182.71z"/>
		<path id="XMLID_15798_" style="fill:#F5F5F5;" d="M331.369,192.64l18.145-10.479c0.598-0.345,1.083-0.066,1.083,0.625l0.002,6.883
			c0,0.69-0.484,1.53-1.082,1.875l-18.145,10.476c-0.598,0.345-1.083,0.065-1.083-0.625l-0.002-6.88
			C330.287,193.825,330.771,192.986,331.369,192.64z"/>
		<path id="XMLID_16164_" style="fill:#27DEBF;" d="M352.496,199.206l-24.1,13.915c-1.196,0.69-2.165,2.369-2.165,3.75v46.59
			c0,1.381,0.969,1.94,2.165,1.25l24.1-13.915c1.196-0.69,2.165-2.369,2.165-3.75v-46.59
			C354.661,199.075,353.691,198.515,352.496,199.206z"/>
		<path id="XMLID_16162_" style="fill:#F5F5F5;" d="M333.273,215.014c1.648-0.952,2.984-0.18,2.984,1.723
			c0,1.903-1.337,4.217-2.986,5.169c-1.649,0.951-2.985,0.18-2.984-1.723C330.288,218.28,331.625,215.966,333.273,215.014z"/>
		<path id="XMLID_16153_" style="fill:#F5F5F5;" d="M338.413,215.544c0-0.648,0.485-1.453,1.083-1.798l10.021-5.785
			c0.598-0.345,1.082-0.1,1.081,0.547c-0.001,0.647-0.486,1.452-1.084,1.797l-10.018,5.787
			C338.898,216.437,338.413,216.192,338.413,215.544z"/>
		<path id="XMLID_16150_" style="fill:#F5F5F5;" d="M331.369,225.474l18.145-10.479c0.598-0.345,1.083-0.065,1.083,0.625
			l0.002,6.883c0,0.69-0.484,1.53-1.082,1.875l-18.145,10.476c-0.598,0.345-1.083,0.065-1.083-0.625l-0.002-6.88
			C330.287,226.659,330.771,225.82,331.369,225.474z"/>
		<path id="XMLID_16170_" style="fill:#F5F5F5;" d="M333.273,238.443c1.648-0.952,2.984-0.18,2.984,1.723
			c0,1.903-1.337,4.217-2.986,5.169c-1.649,0.951-2.985,0.18-2.984-1.723C330.288,241.709,331.625,239.395,333.273,238.443z"/>
		<path id="XMLID_16166_" style="fill:#F5F5F5;" d="M338.413,238.973c0-0.648,0.485-1.453,1.083-1.798l10.021-5.785
			c0.598-0.345,1.082-0.1,1.081,0.547c-0.001,0.647-0.486,1.452-1.084,1.797l-10.018,5.787
			C338.898,239.866,338.413,239.621,338.413,238.973z"/>
		<path id="XMLID_16165_" style="fill:#F5F5F5;" d="M331.369,248.904l18.145-10.479c0.598-0.345,1.083-0.066,1.083,0.625
			l0.002,6.883c0,0.69-0.484,1.53-1.082,1.875l-18.145,10.476c-0.598,0.345-1.083,0.065-1.083-0.625l-0.002-6.88
			C330.287,250.088,330.771,249.249,331.369,248.904z"/>
		<path id="XMLID_16176_" style="fill:#27DEBF;" d="M352.496,255.477l-24.1,13.915c-1.196,0.69-2.165,2.369-2.165,3.75v9.084
			c0,1.381,0.969,1.94,2.165,1.25l24.1-13.915c1.196-0.69,2.165-2.369,2.165-3.75v-9.084
			C354.661,255.346,353.691,254.786,352.496,255.477z"/>
		<path id="XMLID_16175_" style="fill:#F5F5F5;" d="M333.276,270.432c1.648-0.952,2.985-0.18,2.985,1.723
			c0,1.903-1.337,4.217-2.986,5.169c-1.649,0.951-2.985,0.18-2.985-1.723C330.291,273.698,331.628,271.384,333.276,270.432z"/>
		<path id="XMLID_16174_" style="fill:#F5F5F5;" d="M338.416,270.962c0-0.648,0.485-1.453,1.082-1.798l10.021-5.785
			c0.598-0.345,1.082-0.1,1.081,0.547c-0.001,0.647-0.486,1.452-1.084,1.797l-10.018,5.787
			C338.901,271.855,338.416,271.61,338.416,270.962z"/>
		<g id="XMLID_15652_">
			<path id="XMLID_15568_" style="fill:#F5F5F5;" d="M362.784,118.217v-1.997l0-10.081c-0.003-1.103-0.777-2.443-1.732-2.994
				l-0.598-0.345c-0.957-0.552-2.508-0.552-3.464,0l-150.895,87.12c-0.957,0.552-1.732,0.105-1.732-1l0-5.381
				c0-1.104-0.775-2.448-1.732-3l-0.598-0.345c-0.957-0.552-2.507-0.552-3.464,0l-49.342,28.488c-0.956,0.552-1.732,1.895-1.732,3
				l0.001,10.071c0,1.105-0.775,2.448-1.732,3l-4.659,2.689c-0.957,0.552-1.732,1.895-1.732,3v12.072l4.062,2.345L362.784,118.217z"
				/>
			<path id="XMLID_430_" style="fill:#E0E0E0;" d="M151.557,226.097h0.437l1.114-13.176l-5.105-2.947
				c-0.314,0.543-0.508,1.156-0.508,1.709l0.001,10.071c0,0.552-0.194,1.164-0.507,1.706L151.557,226.097z"/>
			<path id="XMLID_15589_" style="fill:#E0E0E0;" d="M139.879,228.735c-0.313,0.543-0.507,1.154-0.507,1.707v12.072l4.062,2.345
				l4.061-11.726L139.879,228.735z"/>
			<path id="XMLID_15488_" style="fill:#F5F5F5;" d="M149.825,227.097l-4.659,2.69c-0.957,0.552-1.732,1.895-1.732,3l0,12.071
				l219.35-126.641l0-12.072c0-1.105-0.775-1.552-1.732-1L206.095,194.61c-0.957,0.552-1.732,0.105-1.732-1l0-10.071
				c0-1.104-0.775-1.552-1.732-1l-49.342,28.488c-0.956,0.552-1.732,1.895-1.732,3l0.001,10.07
				C151.557,225.202,150.782,226.545,149.825,227.097z"/>
			<g id="XMLID_15562_">
				<path id="XMLID_15484_" style="fill:#E0E0E0;" d="M163.743,212.026c0,1.295,0.969,1.785,2.165,1.095l24.104-13.917
					c1.196-0.69,2.165-2.3,2.165-3.595c0-1.295-0.969-1.786-2.165-1.095l-24.104,13.917
					C164.713,209.121,163.743,210.73,163.743,212.026z"/>
				<path id="XMLID_15486_" style="fill:#27DEBF;" d="M157.65,213.198c-1.122,0.648-2.031,2.223-2.031,3.518
					c0,1.295,0.909,1.82,2.031,1.173c1.122-0.648,2.031-2.223,2.031-3.518C159.681,213.075,158.772,212.55,157.65,213.198z"/>
				<g id="XMLID_15513_">
					<g id="XMLID_15532_">
						<path id="XMLID_17936_" style="fill:#E0E0E0;" d="M200.302,193.764c-0.085,0-0.171-0.021-0.25-0.067l-4.063-2.345
							c-0.239-0.138-0.321-0.444-0.183-0.683c0.138-0.239,0.444-0.319,0.683-0.183l4.063,2.345c0.239,0.138,0.321,0.444,0.183,0.683
							C200.643,193.674,200.474,193.764,200.302,193.764z"/>
					</g>
					<g id="XMLID_15533_">
						<path id="XMLID_17935_" style="fill:#E0E0E0;" d="M196.239,196.109c-0.085,0-0.171-0.021-0.25-0.067
							c-0.239-0.138-0.321-0.444-0.183-0.683l4.063-7.036c0.138-0.24,0.444-0.319,0.683-0.183c0.239,0.138,0.321,0.444,0.183,0.683
							l-4.063,7.036C196.58,196.02,196.411,196.109,196.239,196.109z"/>
					</g>
				</g>
			</g>
			<g id="XMLID_15557_">
				<g id="XMLID_15541_">
					<g id="XMLID_15552_">
						<path id="XMLID_17934_" style="fill:#E0E0E0;" d="M149.557,234.5c-0.172,0-0.341-0.089-0.433-0.25
							c-0.139-0.239-0.057-0.545,0.183-0.683l4.875-2.814c0.237-0.138,0.545-0.057,0.683,0.183c0.139,0.239,0.057,0.545-0.183,0.683
							l-4.875,2.814C149.727,234.479,149.642,234.5,149.557,234.5z"/>
					</g>
					<g id="XMLID_15549_">
						<path id="XMLID_17933_" style="fill:#E0E0E0;" d="M151.557,235.978c-0.083,0-0.168-0.02-0.245-0.064l-2.752-1.548l2.565-4.405
							c0.139-0.24,0.445-0.319,0.684-0.181c0.238,0.139,0.319,0.445,0.18,0.684l-2.054,3.528l1.867,1.05
							c0.24,0.136,0.326,0.44,0.19,0.681C151.9,235.886,151.731,235.978,151.557,235.978z"/>
					</g>
				</g>
				<g id="XMLID_15553_">
					<g id="XMLID_15555_">
						<path id="XMLID_17932_" style="fill:#E0E0E0;" d="M156.782,230.314c-0.172,0-0.341-0.09-0.433-0.25
							c-0.139-0.239-0.057-0.545,0.183-0.683l4.875-2.814c0.239-0.138,0.545-0.056,0.683,0.183c0.139,0.239,0.057,0.545-0.183,0.683
							l-4.875,2.814C156.953,230.292,156.867,230.314,156.782,230.314z"/>
					</g>
					<g id="XMLID_15554_">
						<path id="XMLID_17930_" style="fill:#E0E0E0;" d="M159.657,231.287c-0.086,0-0.173-0.022-0.252-0.068
							c-0.238-0.139-0.319-0.445-0.18-0.684l2.054-3.528l-1.867-1.05c-0.24-0.136-0.326-0.44-0.19-0.681
							c0.135-0.241,0.439-0.326,0.681-0.191l2.752,1.548l-2.565,4.405C159.996,231.198,159.829,231.287,159.657,231.287z"/>
					</g>
				</g>
				<path id="XMLID_15539_" style="fill:#F5F5F5;" d="M169.97,220.156l158.151-91.309c1.196-0.69,2.165-0.2,2.165,1.095
					c0,1.295-0.969,2.905-2.165,3.595L169.97,224.847c-1.196,0.69-2.165,0.2-2.165-1.095
					C167.805,222.456,168.775,220.846,169.97,220.156z"/>
				<path id="XMLID_15556_" style="fill:#FAFAFA;" d="M336.38,124.08c1.122-0.648,2.031-0.123,2.031,1.173
					c0,1.295-0.909,2.87-2.031,3.518c-1.122,0.648-2.031,0.123-2.031-1.173C334.349,126.302,335.258,124.727,336.38,124.08z"/>
				<path id="XMLID_15558_" style="fill:#FAFAFA;" d="M344.504,119.39c1.122-0.648,2.031-0.123,2.031,1.173
					c0,1.295-0.909,2.87-2.031,3.518s-2.031,0.123-2.031-1.173C342.473,121.612,343.382,120.037,344.504,119.39z"/>
				<path id="XMLID_15559_" style="fill:#FAFAFA;" d="M352.628,114.699c1.122-0.648,2.031-0.123,2.031,1.173
					c0,1.295-0.909,2.87-2.031,3.518c-1.122,0.648-2.031,0.123-2.031-1.173C350.597,116.922,351.507,115.347,352.628,114.699z"/>
			</g>
		</g>
	</g>
	<g id="XMLID_16500_">
		<path id="XMLID_15740_" style="fill:#FFA8A7;" d="M406.186,155.834c-1.931,1.998-16.406,16.972-16.406,16.972
			s-16.112-1.589-21.583-3.154c-1.724-0.493-3.118-2.856-3.498-4.842c-0.38-1.986-1.916-2.196-1.916-2.196v3.973
			c-0.14,1.006-0.631,1.527-2.07,1.559c-5.532,0.121-8.095-1.559-8.769,1.445c-0.43,1.916,0.404,4.1,4.059,5.101
			c5.125,1.404,7.955,0.703,11.077,1.477c2.407,0.597,19.193,3.79,22.495,4.511c1.746,0.381,3.076,0.261,4.97-1.615
			c1.895-1.876,16.141-15.167,16.141-15.167c4.35-4.347,3.078-8.866,0.646-10.203C409.808,152.858,408.117,153.836,406.186,155.834z
			"/>
		<path id="XMLID_15742_" style="fill:#27DEBF;" d="M411.206,153.603c1.063,0.431,2.359,1.555,2.459,4.483
			c0.1,2.927-2.056,5.581-4.602,8.626c-2.546,3.045-3.313,3.85-3.313,3.85s-6.448-2.341-7.538-7.133c0,0,4.854-5.138,6.311-6.787
			C405.981,154.992,408.653,152.47,411.206,153.603z"/>
	</g>
</g>
<g id="Button">
	<g>
		<path id="XMLID_15654_" style="fill:#37474F;" d="M226.572,438.277l-32.228-18.607c-1.196-0.69-2.165-2.369-2.165-3.75v-4.381
			c0-1.381,0.969-3.06,2.165-3.75l36.29-20.952c1.196-0.69,3.134-0.69,4.33,0l32.228,18.607c1.196,0.69,2.165,2.369,2.165,3.75
			v4.381c0,1.381-0.969,3.06-2.165,3.75l-36.29,20.952C229.706,438.967,227.767,438.967,226.572,438.277z"/>
		<path id="XMLID_15690_" style="fill:#263238;" d="M192.179,411.538v4.382c0,1.381,0.969,3.06,2.165,3.75l32.228,18.607
			c0.598,0.345,1.381,0.518,2.165,0.518v-13.339l-32.496-18.762l-1.897,1.095C193.148,408.479,192.179,410.158,192.179,411.538z"/>
		<path id="XMLID_15655_" style="fill:#455A64;" d="M230.634,386.837l-36.29,20.952c-1.196,0.69-1.196,1.81,0,2.5l32.229,18.607
			c1.196,0.69,3.134,0.69,4.33,0l36.289-20.952c1.196-0.69,1.196-1.81,0-2.5l-32.228-18.607
			C233.769,386.147,231.83,386.147,230.634,386.837z"/>
		<path id="XMLID_15658_" style="fill:#FFFFFF;" d="M225.702,409.369c0.292-1.184,2.332-2.362,4.382-2.53L232,406.68
			c1.061-0.087,2.04-0.652,2.191-1.265c0.153-0.611-0.583-1.036-1.643-0.949l-1.914,0.158c-2.051,0.168-4.092,0.788-5.746,1.743
			c-1.655,0.956-2.729,2.134-3.021,3.315l-1.78,7.197c-0.605,2.441,2.344,4.144,6.573,3.795l1.916-0.159
			c2.051-0.168,4.09-0.787,5.746-1.744c1.655-0.955,2.724-2.134,3.018-3.315l0.843-3.401c0.152-0.612-0.583-1.036-1.642-0.948
			c-1.061,0.087-2.04,0.652-2.191,1.265l-0.844,3.4c-0.291,1.183-2.33,2.36-4.382,2.53l-1.917,0.158
			c-2.113,0.174-3.588-0.678-3.286-1.897L225.702,409.369L225.702,409.369z M239.67,406.048l1.778-7.196
			c0.294-1.183-0.228-2.229-1.469-2.945c-1.242-0.717-3.053-1.018-5.101-0.848l-1.919,0.157c-2.05,0.169-4.089,0.788-5.744,1.744
			c-1.654,0.955-2.728,2.134-3.02,3.316l-0.769,3.107c-0.15,0.613,0.584,1.037,1.641,0.949c1.062-0.086,2.043-0.652,2.193-1.265
			l0.769-3.107c0.147-0.592,0.683-1.18,1.51-1.658c0.828-0.478,1.847-0.787,2.872-0.872l1.918-0.157
			c1.024-0.085,1.929,0.066,2.551,0.424c0.621,0.358,0.882,0.881,0.734,1.472l-1.782,7.195c-0.29,1.183-2.331,2.361-4.379,2.53
			c-1.06,0.087-2.04,0.653-2.192,1.264c-0.15,0.613,0.583,1.036,1.641,0.95c2.05-0.169,4.09-0.787,5.745-1.743
			C238.304,408.408,239.375,407.23,239.67,406.048L239.67,406.048z M239.67,406.048"/>
	</g>
</g>
<g id="Speech_bubble">
	<g>
		<g>
			<path id="XMLID_15694_" style="fill:#E0E0E0;" d="M261.234,376.021l0-4.381c0-1.381,0.969-3.06,2.165-3.75l101.283-58.476
				c1.196-0.69,3.134-0.69,4.33,0l32.228,18.607c1.196,0.69,2.165,2.369,2.165,3.75l0,4.381c0,1.381-0.969,3.06-2.165,3.75
				l-101.283,58.476c-1.196,0.69-3.134,0.69-4.33,0l-32.228-18.607C262.203,379.081,261.234,377.401,261.234,376.021z"/>
			<path id="XMLID_15698_" style="fill:#F5F5F5;" d="M403.405,335.022v-3.251c0-1.381-0.97-3.06-2.165-3.75l-1.897-1.095
				l-101.55,58.631l-0.001,13.339c0.784,0,1.567-0.173,2.165-0.518l50.641-29.238l50.642-29.238c1.195-0.691,2.165-2.369,2.165-3.75
				V335.022z"/>
			<path id="XMLID_15691_" style="fill:#FFFFFF;" d="M263.398,370.39l32.229,18.607c1.196,0.69,3.134,0.69,4.33,0l101.283-58.476
				c1.196-0.69,1.196-1.81,0-2.5l-32.228-18.607c-1.196-0.69-3.134-0.69-4.33,0L263.398,367.89
				C262.203,368.58,262.203,369.7,263.398,370.39z"/>
			<path id="XMLID_15697_" style="fill:#E0E0E0;" d="M285.605,392.592l-19.193,5.041c-1.011,0.266-1.78-0.907-1.134-1.729
				l8.141-10.348L285.605,392.592z"/>
			<polygon id="XMLID_15695_" style="fill:#E0E0E0;" points="285.605,383.211 285.605,392.592 265.041,396.603 265.041,387.199 			
				"/>
			<path id="XMLID_15696_" style="fill:#FFFFFF;" d="M285.605,383.211l-19.193,5.041c-1.011,0.266-1.78-0.907-1.134-1.729
				l8.141-10.348L285.605,383.211z"/>
			<path id="XMLID_17839_" style="fill:#27DEBF;" d="M307.462,355.838c-1.037-0.035-2.027-0.324-2.971-0.869
				c-0.943-0.545-1.447-1.117-1.506-1.716c-0.059-0.598,0.361-1.157,1.262-1.678c0.9-0.52,1.871-0.763,2.91-0.731
				c1.041,0.032,2.033,0.322,2.977,0.867c0.944,0.545,1.445,1.117,1.5,1.718c0.057,0.601-0.365,1.16-1.266,1.681
				C309.468,355.629,308.498,355.873,307.462,355.838z M309.869,353.526c-0.071-0.337-0.423-0.689-1.056-1.053
				c-0.623-0.36-1.227-0.561-1.806-0.6c-0.581-0.039-1.116,0.084-1.608,0.367c-0.484,0.28-0.695,0.589-0.631,0.926
				c0.063,0.337,0.408,0.686,1.031,1.047c0.625,0.359,1.232,0.561,1.824,0.602c0.592,0.043,1.13-0.077,1.615-0.358
				C309.73,354.174,309.94,353.864,309.869,353.526z"/>
			<path id="XMLID_17842_" style="fill:#27DEBF;" d="M316.435,354.072c-0.13-0.008-0.267-0.053-0.411-0.136l-7.176-4.144
				c0.047-0.276,0.218-0.583,0.514-0.921c0.297-0.337,0.666-0.634,1.109-0.89c2.009-1.16,4.037-1.148,6.086,0.034
				c0.943,0.545,1.469,1.102,1.572,1.67c0.104,0.567-0.228,1.073-0.997,1.518c-0.7,0.404-1.47,0.58-2.308,0.528l2.508,1.447
				c0.152,0.088,0.232,0.169,0.242,0.242c0.01,0.073-0.06,0.151-0.205,0.235l-0.53,0.307
				C316.701,354.043,316.567,354.08,316.435,354.072z M316.314,349.819c-0.102-0.338-0.476-0.695-1.124-1.068
				c-0.697-0.402-1.332-0.605-1.908-0.609c-0.576-0.005-1.159,0.162-1.748,0.502c-0.436,0.253-0.703,0.494-0.801,0.726l2.365,1.365
				c0.406,0.235,0.855,0.351,1.346,0.346c0.489-0.006,0.918-0.114,1.285-0.326C316.222,350.469,316.415,350.158,316.314,349.819z"/>
			<path id="XMLID_17845_" style="fill:#27DEBF;" d="M321.532,348.296c-0.648,0.129-1.324,0.141-2.029,0.034
				c-0.703-0.107-1.387-0.351-2.051-0.734c-1.031-0.596-1.576-1.186-1.635-1.771c-0.059-0.586,0.352-1.133,1.232-1.641
				c0.873-0.504,1.793-0.734,2.761-0.692c0.966,0.042,1.942,0.348,2.925,0.915c0.281,0.162,0.311,0.307,0.089,0.435l-3.814,2.202
				c0.527,0.305,1.093,0.447,1.696,0.428c0.603-0.02,1.188-0.194,1.756-0.522c0.547-0.315,0.896-0.683,1.044-1.102
				c0.017-0.046,0.038-0.077,0.065-0.094c0.049-0.028,0.123-0.028,0.223-0.003l0.766,0.153c0.069,0.016,0.123,0.035,0.164,0.059
				c0.055,0.032,0.076,0.08,0.063,0.144c-0.086,0.279-0.244,0.542-0.476,0.788c-0.234,0.245-0.565,0.491-0.995,0.739
				C322.775,347.946,322.181,348.167,321.532,348.296z M321.063,344.832c-0.496-0.286-1.003-0.441-1.522-0.465
				c-0.519-0.023-1.018,0.103-1.496,0.379c-0.484,0.279-0.713,0.578-0.684,0.895c0.026,0.316,0.281,0.612,0.761,0.89
				L321.063,344.832z"/>
			<path id="XMLID_17848_" style="fill:#27DEBF;" d="M326.644,345.379c-0.134-0.006-0.273-0.05-0.417-0.133l-5.005-2.89
				c-0.119-0.068-0.186-0.128-0.199-0.175c-0.013-0.048,0.035-0.104,0.146-0.168l0.592-0.342c0.152-0.088,0.313-0.088,0.479,0
				l0.501,0.266c-0.129-0.618,0.246-1.182,1.125-1.689c0.563-0.324,1.189-0.484,1.879-0.482c0.691,0.003,1.385,0.205,2.081,0.607
				l3.42,1.975c0.143,0.083,0.222,0.163,0.235,0.238c0.013,0.075-0.049,0.153-0.188,0.233l-0.552,0.318
				c-0.139,0.08-0.274,0.116-0.409,0.111c-0.135-0.006-0.273-0.05-0.417-0.134l-3.324-1.918c-0.393-0.227-0.748-0.342-1.067-0.347
				c-0.32-0.005-0.654,0.093-1,0.293c-0.367,0.212-0.573,0.463-0.619,0.752c-0.046,0.29,0.111,0.538,0.471,0.746l3.182,1.836
				c0.143,0.083,0.222,0.163,0.234,0.238s-0.053,0.155-0.198,0.239l-0.54,0.313C326.915,345.348,326.778,345.385,326.644,345.379z"
				/>
			<path id="XMLID_17850_" style="fill:#27DEBF;" d="M330.116,335.504c-0.201-0.013-0.383-0.065-0.542-0.157l-0.252-0.146
				c-0.161-0.093-0.253-0.197-0.274-0.314c-0.021-0.116,0.052-0.223,0.218-0.318l0.446-0.258c0.167-0.096,0.353-0.139,0.557-0.129
				c0.206,0.012,0.389,0.063,0.551,0.155l0.252,0.146c0.158,0.092,0.248,0.198,0.266,0.316c0.02,0.119-0.055,0.227-0.221,0.322
				l-0.447,0.258C330.503,335.475,330.318,335.517,330.116,335.504z M336.974,339.416c-0.134-0.006-0.273-0.05-0.417-0.134
				l-4.885-2.819c-0.151-0.087-0.232-0.17-0.241-0.248c-0.01-0.077,0.055-0.156,0.192-0.236l0.54-0.312
				c0.139-0.08,0.275-0.117,0.41-0.111c0.135,0.005,0.277,0.052,0.429,0.14l4.885,2.819c0.144,0.083,0.222,0.163,0.235,0.238
				c0.014,0.075-0.053,0.155-0.199,0.239l-0.54,0.313C337.245,339.383,337.108,339.42,336.974,339.416z"/>
			<path id="XMLID_17853_" style="fill:#27DEBF;" d="M339.612,337.891c-0.133-0.006-0.272-0.05-0.416-0.133l-5.005-2.889
				c-0.119-0.069-0.185-0.128-0.2-0.176c-0.012-0.048,0.037-0.104,0.147-0.168l0.594-0.342c0.152-0.088,0.312-0.088,0.479,0.001
				l0.501,0.265c-0.13-0.618,0.245-1.182,1.126-1.689c0.561-0.324,1.188-0.484,1.879-0.482c0.689,0.003,1.384,0.205,2.08,0.607
				l3.42,1.975c0.144,0.084,0.223,0.163,0.234,0.238c0.014,0.076-0.049,0.153-0.188,0.233l-0.551,0.318
				c-0.139,0.08-0.275,0.117-0.409,0.111c-0.134-0.005-0.273-0.05-0.417-0.133l-3.324-1.919c-0.393-0.227-0.748-0.342-1.068-0.347
				c-0.319-0.005-0.652,0.093-0.999,0.293c-0.368,0.212-0.573,0.463-0.62,0.753c-0.045,0.289,0.113,0.537,0.473,0.746l3.18,1.836
				c0.145,0.082,0.223,0.162,0.235,0.237c0.013,0.076-0.053,0.155-0.198,0.239l-0.541,0.313
				C339.884,337.86,339.748,337.897,339.612,337.891z"/>
			<path id="XMLID_17754_" style="fill:#27DEBF;" d="M305.968,380.596c-0.324-0.018-0.68-0.137-1.065-0.359l-12.878-7.435
				c-0.385-0.222-0.589-0.429-0.613-0.62c-0.023-0.191,0.15-0.395,0.522-0.609l1.518-0.877c0.232-0.133,0.451-0.217,0.658-0.253
				c0.21-0.034,0.489-0.024,0.839,0.029l11.815,1.691l-6.794-3.923c-0.385-0.222-0.594-0.431-0.625-0.627
				c-0.03-0.195,0.133-0.396,0.492-0.603l1.865-1.077c0.371-0.215,0.727-0.313,1.065-0.295c0.339,0.018,0.701,0.138,1.086,0.36
				l12.879,7.436c0.385,0.222,0.585,0.427,0.602,0.613c0.017,0.188-0.162,0.389-0.533,0.603l-1.52,0.877
				c-0.243,0.142-0.463,0.229-0.657,0.265c-0.194,0.036-0.468,0.026-0.817-0.027l-11.814-1.692l6.818,3.937
				c0.385,0.222,0.585,0.427,0.601,0.613c0.017,0.188-0.161,0.388-0.533,0.603l-1.865,1.077
				C306.641,380.515,306.292,380.614,305.968,380.596z"/>
			<path id="XMLID_17759_" style="fill:#27DEBF;" d="M319.428,372.825c-0.324-0.018-0.679-0.137-1.064-0.359l-12.855-7.423
				c-0.385-0.222-0.593-0.431-0.625-0.627c-0.03-0.195,0.133-0.396,0.492-0.604l7.979-4.607c0.359-0.208,0.689-0.299,0.987-0.274
				c0.298,0.023,0.647,0.151,1.046,0.382l1.021,0.59c0.4,0.23,0.621,0.433,0.663,0.605c0.042,0.173-0.116,0.362-0.476,0.569
				l-5.096,2.942l2.708,1.564l3.365-1.942c0.358-0.207,0.691-0.301,0.996-0.28c0.306,0.021,0.657,0.147,1.058,0.377l0.977,0.564
				c0.399,0.23,0.617,0.435,0.652,0.61c0.035,0.176-0.125,0.367-0.484,0.574l-3.365,1.943l2.73,1.576l5.077-2.931
				c0.358-0.207,0.689-0.299,0.986-0.275c0.298,0.025,0.647,0.151,1.047,0.383l1.022,0.59c0.385,0.222,0.598,0.419,0.64,0.592
				c0.042,0.172-0.117,0.361-0.476,0.568l-7.961,4.597C320.102,372.744,319.753,372.842,319.428,372.825z"/>
			<path id="XMLID_17762_" style="fill:#27DEBF;" d="M332.874,365.177c-0.259,0.021-0.547-0.03-0.864-0.154l-16.624-6.223
				c-0.071-0.026-0.158-0.069-0.263-0.13c-0.28-0.162-0.262-0.336,0.059-0.521l2.712-1.565c0.23-0.134,0.438-0.202,0.624-0.206
				c0.185-0.005,0.386,0.042,0.604,0.138l7.948,3.257l-4.035-4.107c-0.172-0.173-0.252-0.315-0.238-0.426
				c0.014-0.11,0.136-0.233,0.366-0.366l1.289-0.743c0.23-0.134,0.445-0.206,0.643-0.218c0.197-0.011,0.447,0.033,0.747,0.132
				l7.112,2.33l-5.661-4.578c-0.165-0.125-0.242-0.243-0.229-0.354c0.014-0.11,0.136-0.232,0.366-0.365l2.712-1.565
				c0.333-0.192,0.642-0.207,0.922-0.045c0.104,0.06,0.179,0.11,0.225,0.152l10.739,9.619c0.215,0.184,0.307,0.348,0.277,0.493
				c-0.03,0.146-0.174,0.292-0.43,0.44l-1.75,1.01c-0.257,0.148-0.508,0.229-0.753,0.243c-0.245,0.014-0.533-0.038-0.864-0.155
				l-7.32-2.517l4.359,4.227c0.202,0.191,0.288,0.359,0.259,0.505c-0.031,0.145-0.168,0.288-0.411,0.429l-1.75,1.011
				C333.389,365.072,333.132,365.157,332.874,365.177z"/>
			<path id="XMLID_17765_" style="fill:#27DEBF;" d="M356.454,351.448c-0.331-0.014-0.689-0.132-1.074-0.355l-10.746-6.204
				l-2.962,1.71c-0.358,0.207-0.688,0.299-0.986,0.275c-0.298-0.025-0.64-0.147-1.024-0.37l-1.044-0.602
				c-0.385-0.222-0.603-0.421-0.651-0.598c-0.05-0.177,0.105-0.369,0.464-0.576l9.826-5.673c0.358-0.207,0.694-0.299,1.007-0.273
				c0.313,0.024,0.661,0.148,1.046,0.37l1.044,0.602c0.385,0.223,0.595,0.422,0.63,0.598c0.036,0.176-0.126,0.367-0.484,0.574
				l-2.961,1.71l10.746,6.205c0.386,0.223,0.59,0.429,0.612,0.62c0.024,0.191-0.149,0.395-0.521,0.609l-1.865,1.076
				C357.137,351.361,356.785,351.461,356.454,351.448z"/>
			<path id="XMLID_17768_" style="fill:#27DEBF;" d="M361.994,348.095c-0.118-0.067-0.235-0.172-0.349-0.312l-8.615-10.614
				c-0.18-0.222-0.264-0.4-0.252-0.534c0.011-0.134,0.138-0.272,0.381-0.412l1.75-1.011c0.244-0.14,0.482-0.214,0.715-0.22
				c0.232-0.007,0.541,0.042,0.925,0.146l18.385,4.974c0.241,0.067,0.414,0.129,0.518,0.189c0.134,0.077,0.202,0.157,0.206,0.241
				c0.004,0.083-0.06,0.162-0.188,0.235l-2.981,1.721c-0.179,0.105-0.36,0.162-0.544,0.174c-0.184,0.013-0.404-0.018-0.661-0.093
				l-2.806-0.842l-4.038,2.331l1.479,1.608c0.128,0.148,0.181,0.275,0.16,0.382c-0.022,0.107-0.129,0.215-0.32,0.325l-2.962,1.71
				C362.528,348.249,362.26,348.25,361.994,348.095z M364.613,340.482l-4.948-1.502l2.602,2.856L364.613,340.482z"/>
		</g>
		<path id="XMLID_17796_" style="fill:#27DEBF;" d="M377.097,339.53c-0.324-0.018-0.679-0.137-1.064-0.359l-12.855-7.423
			c-0.385-0.222-0.594-0.431-0.625-0.627c-0.031-0.195,0.133-0.397,0.492-0.604l5.729-3.309c1.5-0.866,2.991-1.286,4.471-1.261
			c1.48,0.026,2.902,0.432,4.264,1.218c0.666,0.385,1.125,0.816,1.377,1.295c0.251,0.478,0.258,0.915,0.017,1.309
			c1.743-0.459,3.451-0.206,5.123,0.76c1.348,0.777,2.043,1.649,2.088,2.615c0.045,0.966-0.722,1.903-2.299,2.814l-5.673,3.275
			C377.77,339.449,377.422,339.547,377.097,339.53z M373.949,331.041c0.397-0.229,0.591-0.474,0.579-0.731
			c-0.012-0.259-0.239-0.517-0.684-0.773c-0.474-0.273-0.916-0.411-1.329-0.412c-0.411-0.001-0.83,0.12-1.253,0.364l-2.115,1.222
			l2.687,1.551L373.949,331.041z M380.249,334.299c0.41-0.236,0.591-0.499,0.541-0.786c-0.049-0.287-0.296-0.56-0.74-0.816
			c-0.503-0.29-1.003-0.438-1.498-0.442c-0.494-0.005-0.954,0.115-1.377,0.359l-2.365,1.365l2.997,1.73L380.249,334.299z"/>
	</g>
</g>
<g id="Pointer">
	<g>
		<path id="XMLID_15656_" style="fill:#27DEBF;" d="M285.073,399.806l-33.289,2.602c-0.688,0.054-1.246,0.657-1.246,1.347v2.199
			c0,0.69,0.502,1.497,1.122,1.802l21.164,10.407c0.62,0.305,1.192-0.004,1.279-0.689l0.432-3.404
			c0.087-0.685,0.711-1.159,1.394-1.058l10.172,1.497c0.683,0.101,1.603-0.241,2.054-0.763l1.542-1.783
			c0.452-0.522,0.818-1.505,0.818-2.195v-2.199c0-0.69-0.554-1.332-1.237-1.432l-4.783-0.704c0,0,0.408-0.23,0.912-0.513
			c0.504-0.283,0.913-1.072,0.913-1.763v-2.199C286.319,400.269,285.761,399.753,285.073,399.806z"/>
		<path id="XMLID_33_" style="opacity:0.3;fill:#FFFFFF;" d="M285.073,399.806l-33.289,2.602c-0.688,0.054-1.246,0.657-1.246,1.347
			v2.199c0,0.69,0.502,1.497,1.122,1.802l21.164,10.407c0.62,0.305,1.192-0.004,1.279-0.689l0.432-3.404
			c0.087-0.685,0.711-1.159,1.394-1.058l10.172,1.497c0.683,0.101,1.603-0.241,2.054-0.763l1.542-1.783
			c0.452-0.522,0.818-1.505,0.818-2.195v-2.199c0-0.69-0.554-1.332-1.237-1.432l-4.783-0.704c0,0,0.408-0.23,0.912-0.513
			c0.504-0.283,0.913-1.072,0.913-1.763v-2.199C286.319,400.269,285.761,399.753,285.073,399.806z"/>
		<path id="XMLID_15693_" style="fill:#27DEBF;" d="M250.538,403.756v2.199c0,0.69,0.502,1.497,1.122,1.801l21.164,10.407
			c0.224,0.11,0.441,0.138,0.631,0.099v-5.558l-21.671-10.296C251.096,402.462,250.538,403.065,250.538,403.756z"/>
		<path id="XMLID_32_" style="opacity:0.2;" d="M250.538,403.756v2.199c0,0.69,0.502,1.497,1.122,1.801l21.164,10.407
			c0.224,0.11,0.441,0.138,0.631,0.099v-5.558l-21.671-10.296C251.096,402.462,250.538,403.065,250.538,403.756z"/>
		<path id="XMLID_15692_" style="fill:#27DEBF;" d="M275.206,413.151c0.218-0.11,0.46-0.177,0.723-0.138l10.172,1.497
			c0.306,0.045,0.659-0.009,0.997-0.118v-5.177l-11.891-1.735V413.151z"/>
		<path id="XMLID_34_" style="opacity:0.2;" d="M275.206,413.151c0.218-0.11,0.46-0.177,0.723-0.138l10.172,1.497
			c0.306,0.045,0.659-0.009,0.997-0.118v-5.177l-11.891-1.735V413.151z"/>
		<path id="XMLID_15653_" style="fill:#27DEBF;" d="M285.073,399.806l-33.289,2.602c-0.688,0.054-0.744,0.344-0.124,0.649
			l21.164,10.407c0.62,0.305,1.192-0.004,1.279-0.689l0.432-3.404c0.087-0.685,0.711-1.159,1.394-1.058l10.172,1.497
			c0.683,0.101,1.603-0.241,2.054-0.763l1.542-1.783c0.452-0.522,0.264-1.027-0.419-1.128l-10.172-1.497
			c-0.683-0.1-0.749-0.456-0.147-0.794l6.271-3.525C285.831,399.983,285.761,399.753,285.073,399.806z"/>
	</g>
</g>
</svg>
